<svg width="22" height="23" viewBox="0 0 22 23" fill="none" xmlns="http://www.w3.org/2000/svg">
<path d="M15.5833 19.7501H6.41659C2.74992 19.7501 1.83325 18.8334 1.83325 15.1667V7.83339C1.83325 4.16673 2.74992 3.25006 6.41659 3.25006H15.5833C19.2499 3.25006 20.1666 4.16673 20.1666 7.83339V15.1667C20.1666 18.8334 19.2499 19.7501 15.5833 19.7501Z" stroke="#23213D" stroke-width="1.47263" stroke-linecap="round" stroke-linejoin="round"/>
<path d="M12.8335 7.83331H17.4168" stroke="#23213D" stroke-width="1.47263" stroke-linecap="round" stroke-linejoin="round"/>
<path d="M13.75 11.5H17.4167" stroke="#23213D" stroke-width="1.47263" stroke-linecap="round" stroke-linejoin="round"/>
<path d="M15.5833 15.1666H17.4166" stroke="#23213D" stroke-width="1.47263" stroke-linecap="round" stroke-linejoin="round"/>
<path d="M7.79173 10.8492C8.70807 10.8492 9.4509 10.1063 9.4509 9.18999C9.4509 8.27366 8.70807 7.53082 7.79173 7.53082C6.8754 7.53082 6.13257 8.27366 6.13257 9.18999C6.13257 10.1063 6.8754 10.8492 7.79173 10.8492Z" stroke="#23213D" stroke-width="1.47263" stroke-linecap="round" stroke-linejoin="round"/>
<path d="M11.0002 15.4692C10.8718 14.14 9.81766 13.095 8.4885 12.9758C8.03016 12.93 7.56266 12.93 7.09516 12.9758C5.766 13.1042 4.71183 14.14 4.5835 15.4692" stroke="#23213D" stroke-width="1.47263" stroke-linecap="round" stroke-linejoin="round"/>
</svg>
