<svg width="23" height="23" viewBox="0 0 23 23" fill="none" xmlns="http://www.w3.org/2000/svg">
<path d="M10.2064 2.35565H8.3507C3.71142 2.35565 1.85571 4.21136 1.85571 8.85064V14.4178C1.85571 19.0571 3.71142 20.9128 8.3507 20.9128H13.9178C18.5571 20.9128 20.4128 19.0571 20.4128 14.4178V12.5621" stroke="#23213D" stroke-width="1.56159" stroke-linecap="round" stroke-linejoin="round"/>
<path d="M14.8829 3.30211L7.57142 10.6136C7.29307 10.892 7.01471 11.4394 6.95904 11.8384L6.56006 14.6312C6.4116 15.6426 7.12605 16.3478 8.13742 16.2086L10.9303 15.8096C11.32 15.7539 11.8674 15.4756 12.155 15.1972L19.4665 7.88572C20.7284 6.62383 21.3222 5.15782 19.4665 3.30211C17.6108 1.44639 16.1448 2.04022 14.8829 3.30211Z" stroke="#23213D" stroke-width="1.56159" stroke-miterlimit="10" stroke-linecap="round" stroke-linejoin="round"/>
<path d="M13.8342 4.35059C14.4559 6.56816 16.191 8.30325 18.4178 8.93419" stroke="#23213D" stroke-width="1.56159" stroke-miterlimit="10" stroke-linecap="round" stroke-linejoin="round"/>
</svg>
