<svg width="96" height="26" viewBox="0 0 96 26" fill="none" xmlns="http://www.w3.org/2000/svg">
<path d="M40.2416 4.66134C40.3925 4.42584 40.6008 4.23563 40.8665 4.0907C41.1322 3.94578 41.4432 3.87332 41.7995 3.87332C42.2161 3.87332 42.5936 3.97899 42.9317 4.19034C43.2699 4.40169 43.5356 4.70361 43.7288 5.09611C43.9281 5.48862 44.0277 5.94452 44.0277 6.46383C44.0277 6.98314 43.9281 7.44207 43.7288 7.84061C43.5356 8.23311 43.2699 8.53806 42.9317 8.75544C42.5936 8.96679 42.2161 9.07246 41.7995 9.07246C41.4493 9.07246 41.1383 9 40.8665 8.85508C40.6008 8.71015 40.3925 8.52296 40.2416 8.2935V11.4094H38.6927V3.94578H40.2416V4.66134ZM42.4516 6.46383C42.4516 6.07737 42.343 5.77544 42.1256 5.55806C41.9142 5.33463 41.6515 5.22292 41.3375 5.22292C41.0296 5.22292 40.7669 5.33463 40.5495 5.55806C40.3382 5.78148 40.2325 6.08643 40.2325 6.47289C40.2325 6.85935 40.3382 7.1643 40.5495 7.38772C40.7669 7.61115 41.0296 7.72286 41.3375 7.72286C41.6455 7.72286 41.9082 7.61115 42.1256 7.38772C42.343 7.15826 42.4516 6.8503 42.4516 6.46383ZM47.1409 9.07246C46.6458 9.07246 46.1989 8.96679 45.8004 8.75544C45.4079 8.54409 45.0969 8.24217 44.8674 7.84967C44.644 7.45716 44.5323 6.99824 44.5323 6.47289C44.5323 5.95358 44.647 5.49767 44.8765 5.10517C45.106 4.70663 45.42 4.40169 45.8185 4.19034C46.217 3.97899 46.6639 3.87332 47.1591 3.87332C47.6542 3.87332 48.1011 3.97899 48.4996 4.19034C48.8981 4.40169 49.2121 4.70663 49.4416 5.10517C49.6711 5.49767 49.7858 5.95358 49.7858 6.47289C49.7858 6.9922 49.668 7.45113 49.4325 7.84967C49.2031 8.24217 48.8861 8.54409 48.4815 8.75544C48.0829 8.96679 47.6361 9.07246 47.1409 9.07246ZM47.1409 7.73192C47.4368 7.73192 47.6874 7.62322 47.8927 7.40584C48.1041 7.18845 48.2098 6.87747 48.2098 6.47289C48.2098 6.06831 48.1071 5.75733 47.9018 5.53994C47.7025 5.32256 47.4549 5.21386 47.1591 5.21386C46.8571 5.21386 46.6065 5.32256 46.4073 5.53994C46.208 5.75129 46.1084 6.06227 46.1084 6.47289C46.1084 6.87747 46.205 7.18845 46.3982 7.40584C46.5975 7.62322 46.8451 7.73192 47.1409 7.73192ZM57.0566 3.89143C57.6846 3.89143 58.1828 4.08165 58.5511 4.46207C58.9255 4.8425 59.1127 5.37086 59.1127 6.04718V9H57.5729V6.2555C57.5729 5.92943 57.4854 5.67883 57.3102 5.50371C57.1412 5.32256 56.9057 5.23198 56.6037 5.23198C56.3018 5.23198 56.0633 5.32256 55.8882 5.50371C55.7191 5.67883 55.6346 5.92943 55.6346 6.2555V9H54.0947V6.2555C54.0947 5.92943 54.0072 5.67883 53.8321 5.50371C53.663 5.32256 53.4275 5.23198 53.1256 5.23198C52.8236 5.23198 52.5851 5.32256 52.41 5.50371C52.2409 5.67883 52.1564 5.92943 52.1564 6.2555V9H50.6075V3.94578H52.1564V4.57982C52.3134 4.36847 52.5187 4.20242 52.7723 4.08165C53.0259 3.95484 53.3128 3.89143 53.6328 3.89143C54.0132 3.89143 54.3514 3.97295 54.6473 4.13599C54.9492 4.29903 55.1847 4.53151 55.3538 4.83344C55.5289 4.55567 55.7674 4.32922 56.0693 4.15411C56.3712 3.97899 56.7003 3.89143 57.0566 3.89143ZM64.9603 6.39137C64.9603 6.53629 64.9513 6.68726 64.9332 6.84426H61.4278C61.452 7.15826 61.5516 7.3998 61.7267 7.56888C61.9079 7.73192 62.1283 7.81344 62.3879 7.81344C62.7744 7.81344 63.0431 7.6504 63.1941 7.32432H64.8426C64.7581 7.65643 64.6041 7.95534 64.3807 8.22103C64.1633 8.48673 63.8885 8.69506 63.5564 8.84602C63.2243 8.99698 62.8529 9.07246 62.4423 9.07246C61.9471 9.07246 61.5063 8.96679 61.1199 8.75544C60.7334 8.54409 60.4315 8.24217 60.2141 7.84967C59.9967 7.45716 59.888 6.99824 59.888 6.47289C59.888 5.94754 59.9937 5.48862 60.205 5.09611C60.4224 4.70361 60.7243 4.40169 61.1108 4.19034C61.4973 3.97899 61.9411 3.87332 62.4423 3.87332C62.9314 3.87332 63.3662 3.97597 63.7466 4.18128C64.127 4.38659 64.4229 4.67946 64.6343 5.05988C64.8517 5.44031 64.9603 5.88414 64.9603 6.39137ZM63.3752 5.98377C63.3752 5.71808 63.2847 5.50673 63.1035 5.34973C62.9224 5.19273 62.6959 5.11423 62.4242 5.11423C62.1645 5.11423 61.9441 5.18971 61.763 5.34067C61.5878 5.49163 61.4792 5.706 61.4369 5.98377H63.3752ZM67.3263 4.78815C67.5075 4.51038 67.7339 4.29299 68.0057 4.13599C68.2774 3.97295 68.5793 3.89143 68.9114 3.89143V5.53088H68.4857C68.0993 5.53088 67.8094 5.61542 67.6162 5.7845C67.4229 5.94754 67.3263 6.23739 67.3263 6.65405V9H65.7775V3.94578H67.3263V4.78815ZM69.3438 6.46383C69.3438 5.94452 69.4404 5.48862 69.6336 5.09611C69.8329 4.70361 70.1016 4.40169 70.4398 4.19034C70.7779 3.97899 71.1553 3.87332 71.572 3.87332C71.9283 3.87332 72.2393 3.94578 72.5049 4.0907C72.7767 4.23563 72.985 4.42584 73.1299 4.66134V3.94578H74.6788V9H73.1299V8.28444C72.979 8.51994 72.7676 8.71015 72.4959 8.85508C72.2302 9 71.9192 9.07246 71.5629 9.07246C71.1523 9.07246 70.7779 8.96679 70.4398 8.75544C70.1016 8.53806 69.8329 8.23311 69.6336 7.84061C69.4404 7.44207 69.3438 6.98314 69.3438 6.46383ZM73.1299 6.47289C73.1299 6.08643 73.0212 5.78148 72.8039 5.55806C72.5925 5.33463 72.3329 5.22292 72.0249 5.22292C71.7169 5.22292 71.4542 5.33463 71.2369 5.55806C71.0255 5.77544 70.9198 6.07737 70.9198 6.46383C70.9198 6.8503 71.0255 7.15826 71.2369 7.38772C71.4542 7.61115 71.7169 7.72286 72.0249 7.72286C72.3329 7.72286 72.5925 7.61115 72.8039 7.38772C73.0212 7.1643 73.1299 6.85935 73.1299 6.47289ZM78.879 3.89143C79.4708 3.89143 79.9418 4.08467 80.292 4.47113C80.6483 4.85155 80.8264 5.3769 80.8264 6.04718V9H79.2866V6.2555C79.2866 5.91735 79.199 5.65467 79.0239 5.46748C78.8488 5.28029 78.6133 5.18669 78.3174 5.18669C78.0215 5.18669 77.786 5.28029 77.6109 5.46748C77.4358 5.65467 77.3482 5.91735 77.3482 6.2555V9H75.7993V3.94578H77.3482V4.61605C77.5052 4.39263 77.7166 4.21751 77.9823 4.0907C78.248 3.95786 78.5469 3.89143 78.879 3.89143ZM82.6817 3.42043C82.4099 3.42043 82.1865 3.34193 82.0114 3.18493C81.8423 3.02189 81.7578 2.82262 81.7578 2.58712C81.7578 2.34558 81.8423 2.14631 82.0114 1.98931C82.1865 1.82627 82.4099 1.74475 82.6817 1.74475C82.9474 1.74475 83.1648 1.82627 83.3338 1.98931C83.5089 2.14631 83.5965 2.34558 83.5965 2.58712C83.5965 2.82262 83.5089 3.02189 83.3338 3.18493C83.1648 3.34193 82.9474 3.42043 82.6817 3.42043ZM83.4516 3.94578V9H81.9027V3.94578H83.4516ZM84.2661 6.46383C84.2661 5.94452 84.3627 5.48862 84.5559 5.09611C84.7552 4.70361 85.0239 4.40169 85.3621 4.19034C85.7002 3.97899 86.0776 3.87332 86.4943 3.87332C86.8505 3.87332 87.1615 3.94578 87.4272 4.0907C87.699 4.23563 87.9073 4.42584 88.0522 4.66134V3.94578H89.6011V9H88.0522V8.28444C87.9012 8.51994 87.6899 8.71015 87.4182 8.85508C87.1525 9 86.8415 9.07246 86.4852 9.07246C86.0746 9.07246 85.7002 8.96679 85.3621 8.75544C85.0239 8.53806 84.7552 8.23311 84.5559 7.84061C84.3627 7.44207 84.2661 6.98314 84.2661 6.46383ZM88.0522 6.47289C88.0522 6.08643 87.9435 5.78148 87.7261 5.55806C87.5148 5.33463 87.2551 5.22292 86.9472 5.22292C86.6392 5.22292 86.3765 5.33463 86.1591 5.55806C85.9478 5.77544 85.8421 6.07737 85.8421 6.46383C85.8421 6.8503 85.9478 7.15826 86.1591 7.38772C86.3765 7.61115 86.6392 7.72286 86.9472 7.72286C87.2551 7.72286 87.5148 7.61115 87.7261 7.38772C87.9435 7.1643 88.0522 6.85935 88.0522 6.47289ZM93.8013 3.89143C94.393 3.89143 94.864 4.08467 95.2143 4.47113C95.5705 4.85155 95.7487 5.3769 95.7487 6.04718V9H94.2089V6.2555C94.2089 5.91735 94.1213 5.65467 93.9462 5.46748C93.7711 5.28029 93.5356 5.18669 93.2397 5.18669C92.9438 5.18669 92.7083 5.28029 92.5332 5.46748C92.3581 5.65467 92.2705 5.91735 92.2705 6.2555V9H90.7216V3.94578H92.2705V4.61605C92.4275 4.39263 92.6388 4.21751 92.9045 4.0907C93.1702 3.95786 93.4691 3.89143 93.8013 3.89143ZM40.9933 20.0634C40.5284 20.0634 40.1117 19.9879 39.7434 19.837C39.375 19.686 39.0791 19.4626 38.8557 19.1667C38.6383 18.8708 38.5236 18.5145 38.5115 18.0979H40.16C40.1842 18.3334 40.2657 18.5145 40.4046 18.6413C40.5435 18.7621 40.7246 18.8225 40.9481 18.8225C41.1775 18.8225 41.3587 18.7712 41.4915 18.6685C41.6244 18.5598 41.6908 18.4119 41.6908 18.2247C41.6908 18.0677 41.6364 17.9379 41.5278 17.8352C41.4251 17.7325 41.2953 17.648 41.1383 17.5816C40.9873 17.5152 40.7699 17.4397 40.4861 17.3551C40.0755 17.2283 39.7404 17.1015 39.4807 16.9747C39.2211 16.8479 38.9976 16.6607 38.8104 16.4131C38.6232 16.1656 38.5296 15.8425 38.5296 15.444C38.5296 14.8522 38.744 14.3902 39.1727 14.0581C39.6015 13.72 40.16 13.5509 40.8484 13.5509C41.5489 13.5509 42.1135 13.72 42.5422 14.0581C42.971 14.3902 43.2004 14.8552 43.2306 15.453H41.5549C41.5429 15.2477 41.4674 15.0877 41.3285 14.973C41.1896 14.8522 41.0115 14.7918 40.7941 14.7918C40.6069 14.7918 40.4559 14.8431 40.3412 14.9458C40.2265 15.0424 40.1691 15.1843 40.1691 15.3715C40.1691 15.5768 40.2657 15.7368 40.4589 15.8516C40.6522 15.9663 40.9541 16.0901 41.3647 16.2229C41.7753 16.3618 42.1075 16.4947 42.3611 16.6215C42.6207 16.7483 42.8441 16.9324 43.0313 17.174C43.2185 17.4155 43.3121 17.7265 43.3121 18.1069C43.3121 18.4692 43.2185 18.7983 43.0313 19.0942C42.8502 19.3901 42.5845 19.6256 42.2343 19.8007C41.884 19.9758 41.4704 20.0634 40.9933 20.0634ZM48.8395 13.6415V14.8824H47.1547V20H45.6059V14.8824H43.9211V13.6415H48.8395ZM53.575 18.8768H51.2019L50.8215 20H49.2002L51.5008 13.6415H53.2943L55.5949 20H53.9555L53.575 18.8768ZM53.1765 17.6812L52.3885 15.3534L51.6095 17.6812H53.1765ZM59.5378 20L58.2154 17.5997H57.844V20H56.2951V13.6415H58.8947C59.3959 13.6415 59.8216 13.729 60.1718 13.9041C60.5281 14.0793 60.7938 14.3208 60.9689 14.6288C61.144 14.9307 61.2316 15.2688 61.2316 15.6432C61.2316 16.0659 61.1108 16.4433 60.8693 16.7754C60.6338 17.1076 60.2836 17.3431 59.8186 17.4819L61.2859 20H59.5378ZM57.844 16.5037H58.8041C59.0879 16.5037 59.2993 16.4343 59.4382 16.2954C59.5831 16.1565 59.6556 15.9602 59.6556 15.7066C59.6556 15.4651 59.5831 15.2749 59.4382 15.136C59.2993 14.9971 59.0879 14.9277 58.8041 14.9277H57.844V16.5037ZM66.7781 13.6415V14.8824H65.0933V20H63.5444V14.8824H61.8597V13.6415H66.7781ZM68.28 20.0725C68.0083 20.0725 67.7849 19.994 67.6097 19.837C67.4407 19.6739 67.3561 19.4747 67.3561 19.2391C67.3561 18.9976 67.4407 18.7953 67.6097 18.6323C67.7849 18.4692 68.0083 18.3877 68.28 18.3877C68.5457 18.3877 68.7631 18.4692 68.9322 18.6323C69.1073 18.7953 69.1948 18.9976 69.1948 19.2391C69.1948 19.4747 69.1073 19.6739 68.9322 19.837C68.7631 19.994 68.5457 20.0725 68.28 20.0725ZM71.8327 13.6143V20H70.0574V13.6143H71.8327ZM77.6534 13.6143V15.0273H75.9505V20H74.1752V15.0273H72.4904V13.6143H77.6534Z" fill="#00145C"/>
<rect y="12.9207" width="14.1635" height="14.1635" rx="2.61281" transform="rotate(-45.7885 0 12.9207)" fill="#00145C"/>
<rect x="5.66113" y="12.9207" width="17.4187" height="17.4187" rx="2.61281" transform="rotate(-45.7885 5.66113 12.9207)" fill="#00145C"/>
<path d="M16.1123 5.06976L8.06017 12.4509C7.94092 12.5602 7.94092 12.7482 8.06017 12.8575L16.1123 20.2386" stroke="white" stroke-width="4.13695"/>
<path d="M16.1123 5.06976L8.06017 12.4509C7.94092 12.5602 7.94092 12.7482 8.06017 12.8575L16.1123 20.2386" stroke="#FE3756" stroke-width="4.13695"/>
</svg>
